<mxfile host="app.diagrams.net" modified="2023-04-13T07:17:49.713Z" agent="Mozilla/5.0 (Windows NT 10.0; Win64; x64) AppleWebKit/537.36 (KHTML, like Gecko) Chrome/112.0.0.0 Safari/537.36" version="21.1.5" etag="XI8PIxDREGY43RgoBDKX" type="github">
  <diagram name="第 1 页" id="Ibg6V7prkRar6uG4L-sk">
    <mxGraphModel>
      <root>
        <mxCell id="0" />
        <mxCell id="1" parent="0" />
      </root>
    </mxGraphModel>
  </diagram>
</mxfile>
